# xmcd
# Copyright (C) 1995-1998 Ti Kan
#
# Track frame offsets:
#       150
#       14766
#       29562
#       46754
#       62175
#       77091
#       92888
#       110859
#       125958
#       142238
#       159674
#       177510
#
# Disc length: 2629 seconds
#
# Revision: 0
# Processed by: cddbd v1.5.2PL0 Copyright (c) Steve Scherf et al.
# Submitted via: CD-Transfer v1.0
#
DISCID=b90a430c
DTITLE=Jabberwalky - Jabberwalky
DYEAR=10
DGENRE=
TTITLE0=Lost For Words
TTITLE1=Feel The Fire
TTITLE2=Phunk
TTITLE3=All Of My Life
TTITLE4=Stay Another Night
TTITLE5=(Now That) I'm Over You
TTITLE6=Interstellar Soulmates
TTITLE7=Wake Me Up
TTITLE8=Nails
TTITLE9=How Do You Feel
TTITLE10=Mr. Mister
TTITLE11=Out Of Control
EXTD=
EXTT0=
EXTT1=
EXTT2=
EXTT3=
EXTT4=
EXTT5=
EXTT6=
EXTT7=
EXTT8=
EXTT9=
EXTT10=
EXTT11=
PLAYORDER=
